<svg width="32" height="32" viewBox="0 0 32 32" fill="none" xmlns="http://www.w3.org/2000/svg">
<path d="M29.3334 11.8386C29.2442 9.78245 28.9942 8.44393 28.2938 7.38508C27.8908 6.77591 27.3904 6.24608 26.815 5.81953C25.2596 4.66663 23.0654 4.66663 18.6771 4.66663H13.3241C8.93572 4.66663 6.74154 4.66663 5.18618 5.81953C4.61075 6.24608 4.11024 6.77591 3.70731 7.38508C3.00703 8.44381 2.75703 9.78216 2.66779 11.8379C2.65252 12.1894 2.95532 12.4583 3.2871 12.4583C5.1348 12.4583 6.63267 14.044 6.63267 16C6.63267 17.956 5.1348 19.5416 3.2871 19.5416C2.95532 19.5416 2.65252 19.8105 2.66779 20.1621C2.75703 22.2178 3.00703 23.5561 3.70731 24.6149C4.11024 25.224 4.61075 25.7538 5.18618 26.1804C6.74154 27.3333 8.93572 27.3333 13.3241 27.3333H18.6771C23.0654 27.3333 25.2596 27.3333 26.815 26.1804C27.3904 25.7538 27.8908 25.224 28.2938 24.6149C28.9942 23.556 29.2442 22.2174 29.3334 20.1614V11.8386Z" stroke="#43D2CB" stroke-width="1.5" stroke-linejoin="round"/>
<path d="M17.3333 16H22.6666" stroke="#43D2CB" stroke-width="1.5" stroke-linecap="round" stroke-linejoin="round"/>
<path d="M12 21.3334H22.6667" stroke="#43D2CB" stroke-width="1.5" stroke-linecap="round" stroke-linejoin="round"/>
</svg>
