<svg width="32" height="32" viewBox="0 0 32 32" fill="none" xmlns="http://www.w3.org/2000/svg">
<path d="M28.9479 12.5161C29.1206 13.1933 29.2333 13.8953 29.2798 14.6161C29.3513 15.7239 29.3513 16.8711 29.2798 17.9789C28.9142 23.6399 24.4715 28.1491 18.8942 28.5201C16.9914 28.6467 15.0049 28.6464 13.1059 28.5201C12.452 28.4765 11.7393 28.3204 11.1254 28.0673C10.4424 27.7859 10.1009 27.6451 9.92733 27.6664C9.75377 27.6879 9.50195 27.8736 8.99832 28.2453C8.11032 28.9007 6.99164 29.3713 5.33265 29.3309C4.49376 29.3105 4.07432 29.3003 3.88653 28.9799C3.69876 28.6595 3.93262 28.2159 4.40036 27.3288C5.04906 26.0985 5.46009 24.6901 4.83729 23.5616C3.76465 21.9497 2.85354 20.0407 2.7204 17.9789C2.64886 16.8711 2.64886 15.7239 2.7204 14.6161C3.08596 8.95517 7.5286 4.44597 13.1059 4.07495C13.6209 4.04068 14.1423 4.01569 14.6667 4" stroke="#D2B843" stroke-width="1.5" stroke-linecap="round" stroke-linejoin="round"/>
<path d="M11.3333 20H20.6666M11.3333 13.3334H15.9999" stroke="#D2B843" stroke-width="1.5" stroke-linecap="round" stroke-linejoin="round"/>
<path d="M18.6667 5.99996H29.3334M18.6667 5.99996C18.6667 5.06632 21.3258 3.322 22.0001 2.66663M18.6667 5.99996C18.6667 6.9336 21.3258 8.67792 22.0001 9.33329" stroke="#D2B843" stroke-width="1.4" stroke-linecap="round" stroke-linejoin="round"/>
</svg>
