<svg width="32" height="32" viewBox="0 0 32 32" fill="none" xmlns="http://www.w3.org/2000/svg">
<path d="M3.33325 16C3.33325 10.0289 3.33325 7.04336 5.18824 5.18836C7.04324 3.33337 10.0288 3.33337 15.9999 3.33337C21.971 3.33337 24.9566 3.33337 26.8117 5.18836C28.6666 7.04336 28.6666 10.0289 28.6666 16C28.6666 21.9711 28.6666 24.9567 26.8117 26.8118C24.9566 28.6667 21.971 28.6667 15.9999 28.6667C10.0288 28.6667 7.04324 28.6667 5.18824 26.8118C3.33325 24.9567 3.33325 21.9711 3.33325 16Z" stroke="#59BCDD" stroke-width="1.8" stroke-linejoin="round"/>
<path d="M16.0105 14.0109C14.906 14.0109 14.0105 14.9064 14.0105 16.0109C14.0105 17.1155 14.906 18.0109 16.0105 18.0109C17.115 18.0109 18.0105 17.1155 18.0105 16.0109C18.0105 14.9064 17.115 14.0109 16.0105 14.0109ZM16.0105 14.0109V9.33203M20.0197 20.0264L17.4216 17.4283" stroke="#59BCDD" stroke-width="1.8" stroke-linecap="round" stroke-linejoin="round"/>
</svg>
